:SAMPLES-PER-SECOND 30
:FULLY-SPECIFIED
:DEGREES
83
root  -6.98333 38.3211 -36.289 10.4276 -66.8066 -17.6687
RightUpLeg  -15.7642 -3.48799 -6.31934
RightLeg  70.6683 -1.70607 -6.25722
RightFoot  7.51444 -0.326437 2.27655
RightToes  1.16414e-010 0 -3.6325e-017
Spine  6.90029 -0.306738 4.29154
Spine1  9.81957 0.742014 -3.04235
HEad  -7.08502 29.2516 -14.2408
LeftShoulder1  8.35256 -11.7462 -47.8
LeftArm  -6.14865 10.2375 -28.8339
LeftForeArm  23.464 -23.5571 -3.83115
LeftHand  -0.244104 0.0205437 5.32207
RightShoulder  6.74824 10.0005 43.5792
RightArm  -1.72187 -17.3276 29.0892
RightForeArm  8.04624 9.65759 7.79886
RightHand  -0.99761 1.84859 -16.0994
LeftUpLeg  -10.2256 9.0459 -14.0746
LeftLeg  17.4151 13.4747 4.65422
LeftFoot  -7.8563 -0.675219 23.4115
LeftToes  2.00086e-010 -2.05915e-011 4.26721e-011
84
root  -7.93712 38.6951 -35.9353 9.62691 -60.1933 -17.0757
RightUpLeg  -19.4286 -0.272815 -5.34337
RightLeg  66.5283 -3.21473 -8.74415
RightFoot  4.87164 0.262342 -1.59026
RightToes  1.16414e-010 0 -3.6325e-017
Spine  7.6548 -0.613244 5.67777
Spine1  9.6361 0.36789 -2.51802
HEad  -5.71783 28.6318 -14.5526
LeftShoulder1  8.33508 -11.7442 -47.7049
LeftArm  -6.31217 7.96011 -30.8078
LeftForeArm  26.6517 -28.4047 -4.68003
LeftHand  -0.244104 0.0205437 5.32207
RightShoulder  6.53379 9.76933 42.8928
RightArm  0.201099 -21.2258 29.0427
RightForeArm  4.8132 11.8578 7.70895
RightHand  -1.09342 2.37751 -16.4636
LeftUpLeg  -6.0916 3.94278 -12.4332
LeftLeg  15.0016 12.3206 3.0282
LeftFoot  -7.79552 -0.672089 22.9093
LeftToes  2.00086e-010 -2.05915e-011 4.26721e-011
85
root  -8.90828 39.0477 -35.5596 9.22784 -53.6014 -16.9521
RightUpLeg  -21.7858 2.56485 -4.28319
RightLeg  59.7052 -5.02166 -9.70864
RightFoot  2.59507 0.37483 -2.88288
RightToes  1.16414e-010 0 -3.6325e-017
Spine  7.93464 -0.965663 6.69082
Spine1  9.74253 -0.158212 -1.80671
HEad  -4.24523 27.6934 -13.9359
LeftShoulder1  8.37669 -11.7991 -47.7717
LeftArm  -5.55374 6.5005 -32.3411
LeftForeArm  29.2653 -33.5091 -5.75443
LeftHand  -0.244104 0.0205437 5.32207
RightShoulder  6.39603 9.68197 42.2252
RightArm  1.84757 -23.8845 29.3058
RightForeArm  3.46546 12.558 7.79453
RightHand  -1.0447 2.18905 -16.1094
LeftUpLeg  -2.23622 0.502657 -10.7174
LeftLeg  12.6768 9.43849 1.4867
LeftFoot  -7.88694 -0.65155 22.8722
LeftToes  2.00086e-010 -2.05915e-011 4.26721e-011
86
root  -9.91076 39.3194 -35.1432 8.2382 -46.8952 -16.2034
RightUpLeg  -22.7402 3.8847 -3.74762
RightLeg  50.4309 -6.24606 -8.44089
RightFoot  1.35188 0.15694 -1.32428
RightToes  1.16414e-010 0 -3.6325e-017
Spine  7.97851 -1.47929 6.61143
Spine1  9.92523 -1.0157 -0.884948
HEad  -2.76158 26.4196 -12.6847
LeftShoulder1  8.5572 -12.0174 -48.1207
LeftArm  -4.01238 5.6535 -33.0431
LeftForeArm  31.454 -38.0402 -6.81914
LeftHand  -0.244104 0.0205437 5.32207
RightShoulder  6.25183 9.53748 41.6947
RightArm  2.65665 -25.266 29.6514
RightForeArm  5.56076 12.2306 7.91152
RightHand  -0.886032 1.40648 -15.2318
LeftUpLeg  1.14876 -1.69148 -9.53846
LeftLeg  11.1864 5.33879 0.754082
LeftFoot  -8.39715 -0.547574 22.9472
LeftToes  2.00086e-010 -2.05915e-011 4.26721e-011
87
root  -10.9712 39.4419 -34.6473 7.19878 -40.8665 -15.0303
RightUpLeg  -22.9414 4.26627 -3.62968
RightLeg  39.2956 -5.668 -5.25609
RightFoot  0.82707 -0.13896 1.34797
RightToes  1.16414e-010 0 -3.6325e-017
Spine  7.77451 -1.79281 5.69941
Spine1  9.89513 -1.69094 -0.0650801
HEad  -1.37694 24.649 -11.2033
LeftShoulder1  8.70847 -12.225 -48.3289
LeftArm  -2.47494 5.21058 -33.6588
LeftForeArm  33.8397 -41.4696 -7.67761
LeftHand  -0.244104 0.0205437 5.32207
RightShoulder  6.09667 9.3547 41.2029
RightArm  2.66868 -26.2721 30.0547
RightForeArm  7.59335 12.0517 7.85543
RightHand  -0.784545 0.838478 -14.7068
LeftUpLeg  3.66149 -2.21177 -8.57214
LeftLeg  10.965 0.1688 0.299776
LeftFoot  -9.62322 -0.2815 22.2857
LeftToes  2.00086e-010 -2.05915e-011 4.26721e-011
88
root  -12.0489 39.4488 -34.0277 6.76328 -36.2495 -14.1788
RightUpLeg  -22.8884 4.43445 -3.20748
RightLeg  27.1085 -3.19883 -2.02649
RightFoot  0.367151 -0.350157 3.44036
RightToes  1.16414e-010 0 -3.6325e-017
Spine  7.30281 -1.72393 5.06452
Spine1  9.80172 -1.79604 0.460463
HEad  -0.439761 22.5721 -9.81859
LeftShoulder1  8.70876 -12.2521 -48.2466
LeftArm  -1.58319 5.23004 -34.4641
LeftForeArm  36.0697 -43.9745 -8.33752
LeftHand  -0.244104 0.0205437 5.32207
RightShoulder  5.99322 9.26429 40.757
RightArm  2.48568 -27.2321 30.2984
RightForeArm  6.42748 12.5443 7.70817
RightHand  -0.785386 0.728853 -14.9673
LeftUpLeg  5.63901 -1.6015 -7.22949
LeftLeg  11.137 -4.99345 -0.452578
LeftFoot  -11.1791 0.0374273 21.4837
LeftToes  2.00086e-010 -2.05915e-011 4.26721e-011
89
root  -13.1035 39.3634 -33.2821 6.37479 -33.0739 -13.5695
RightUpLeg  -22.3562 2.90827 -1.96935
RightLeg  15.219 1.42284 0.17024
RightFoot  -0.340809 -0.58738 6.08799
RightToes  1.16414e-010 0 -3.6325e-017
Spine  6.9016 -1.40498 4.81218
Spine1  10.0078 -1.48306 0.643535
HEad  -0.281357 20.6223 -8.75011
LeftShoulder1  8.68257 -12.2042 -48.2478
LeftArm  -1.5666 5.78362 -34.8422
LeftForeArm  37.2199 -45.7668 -8.87602
LeftHand  -0.244104 0.0205437 5.32207
RightShoulder  5.96942 9.28302 40.5164
RightArm  2.55215 -27.5392 30.0517
RightForeArm  3.25951 13.3507 7.58375
RightHand  -0.8374 0.853688 -15.6363
LeftUpLeg  7.78557 -0.983267 -6.0768
LeftLeg  11.2284 -8.42988 -0.973619
LeftFoot  -12.9405 0.385639 21.6053
LeftToes  2.00086e-010 -2.05915e-011 4.26721e-011
90
root  -14.1458 39.16 -32.4199 5.59164 -30.7564 -12.8335
RightUpLeg  -21.4904 -0.972079 -0.11364
RightLeg  6.14038 6.66549 1.68529
RightFoot  -0.748952 -0.914836 9.75972
RightToes  1.16414e-010 0 -3.6325e-017
Spine  6.69048 -1.09618 4.42288
Spine1  10.5004 -1.1642 0.7431
HEad  -0.67558 19.1343 -8.07282
LeftShoulder1  8.74416 -12.2332 -48.5024
LeftArm  -2.13225 6.808 -34.479
LeftForeArm  36.9328 -46.5353 -9.16992
LeftHand  -0.244104 0.0205437 5.32207
RightShoulder  6.00529 9.35214 40.5428
RightArm  2.77237 -26.7206 29.2901
RightForeArm  0.951121 13.9901 7.46383
RightHand  -0.888279 0.994839 -16.2182
LeftUpLeg  10.1011 -1.04842 -5.63677
LeftLeg  11.8418 -9.75297 -1.0674
LeftFoot  -15.0041 0.809047 22.1797
LeftToes  2.00086e-010 -2.05915e-011 4.26721e-011
91
root  -15.1576 38.8945 -31.4643 4.98172 -28.752 -12.2058
RightUpLeg  -21.3457 -1.4499 0.564124
RightLeg  2.60481 5.67432 3.48165
RightFoot  -0.0171756 -1.11762 11.2563
RightToes  1.16414e-010 0 -3.6325e-017
Spine  6.36288 -0.920141 4.29201
Spine1  11.01 -1.02976 0.936432
HEad  -1.01484 18.1191 -7.70802
LeftShoulder1  8.80552 -12.2777 -48.707
LeftArm  -2.64553 8.00809 -33.7954
LeftForeArm  35.5877 -45.4477 -8.8775
LeftHand  -0.244104 0.0205437 5.32207
RightShoulder  6.04859 9.40152 40.6909
RightArm  3.01903 -25.0727 28.373
RightForeArm  -0.0825204 14.5449 7.28878
RightHand  -0.925057 1.10361 -16.6038
LeftUpLeg  12.1485 -2.12206 -5.4525
LeftLeg  12.9783 -10.1032 -1.25376
LeftFoot  -16.6826 1.1335 21.8675
LeftToes  2.00086e-010 -2.05915e-011 4.26721e-011
92
root  -16.1099 38.6363 -30.4084 5.0349 -27.0535 -12.2852
RightUpLeg  -22.4196 -1.02498 2.25258
RightLeg  5.1343 3.40749 3.79174
RightFoot  1.89511 -1.06904 9.34758
RightToes  1.16414e-010 0 -3.6325e-017
Spine  5.74531 -0.838691 5.60495
Spine1  11.4332 -0.842872 0.69551
HEad  -1.01688 17.4251 -7.63515
LeftShoulder1  8.77381 -12.2093 -48.7424
LeftArm  -2.87631 9.01636 -33.157
LeftForeArm  33.6344 -41.7679 -7.79882
LeftHand  -0.244104 0.0205437 5.32207
RightShoulder  6.06293 9.3854 40.8509
RightArm  3.28822 -22.9862 27.568
RightForeArm  -1.24581 15.252 7.0711
RightHand  -0.974495 1.29015 -17.0011
LeftUpLeg  13.8466 -4.14343 -4.98684
LeftLeg  14.3115 -9.78601 -1.67249
LeftFoot  -17.7988 1.30192 20.9115
LeftToes  2.00086e-010 -2.05915e-011 4.26721e-011
